<svg id="download-on-the-app-store-apple_1_" data-name="download-on-the-app-store-apple (1)" xmlns="http://www.w3.org/2000/svg" xmlns:xlink="http://www.w3.org/1999/xlink" width="287.912" height="85.308" viewBox="0 0 287.912 85.308">
  <defs>
    <linearGradient id="linear-gradient" x1="-1.199" y1="2.436" x2="-1.199" y2="1.535" gradientUnits="objectBoundingBox">
      <stop offset="0" stop-color="#1a1a1a" stop-opacity="0.102"/>
      <stop offset="0.123" stop-color="#212121" stop-opacity="0.153"/>
      <stop offset="0.308" stop-color="#353535" stop-opacity="0.227"/>
      <stop offset="0.532" stop-color="#575757" stop-opacity="0.318"/>
      <stop offset="0.783" stop-color="#858585" stop-opacity="0.42"/>
      <stop offset="1" stop-color="#b3b3b3" stop-opacity="0.51"/>
    </linearGradient>
  </defs>
  <path id="Path_130" data-name="Path 130" d="M287.665,76.9a8.171,8.171,0,0,1-8.181,8.17H11.754A8.182,8.182,0,0,1,3.562,76.9V11.742a8.193,8.193,0,0,1,8.192-8.181H279.481a8.18,8.18,0,0,1,8.181,8.181l0,65.157Z" transform="translate(-1.663 -1.662)" fill="#fff"/>
  <path id="Path_131" data-name="Path 131" d="M277.821,85.308H10.091A10.091,10.091,0,0,1,0,75.238V10.082A10.1,10.1,0,0,1,10.091,0H277.819a10.1,10.1,0,0,1,10.091,10.082V75.236a10.09,10.09,0,0,1-10.089,10.071Z" transform="translate(0 0)" fill="#a6a6a6"/>
  <path id="Path_132" data-name="Path 132" d="M287.665,76.9a8.171,8.171,0,0,1-8.181,8.17H11.754A8.182,8.182,0,0,1,3.562,76.9V11.742a8.193,8.193,0,0,1,8.192-8.181H279.481a8.18,8.18,0,0,1,8.181,8.181l0,65.157Z" transform="translate(-1.663 -1.662)"/>
  <path id="Path_133" data-name="Path 133" d="M88.188,53.817c-.062-6.876,5.631-10.221,5.892-10.376A12.67,12.67,0,0,0,84.1,38.048c-4.2-.442-8.269,2.511-10.407,2.511-2.181,0-5.473-2.468-9.022-2.4a13.284,13.284,0,0,0-11.181,6.818c-4.835,8.369-1.229,20.667,3.4,27.432,2.317,3.315,5.025,7.012,8.569,6.882,3.467-.141,4.763-2.208,8.947-2.208,4.146,0,5.362,2.208,8.977,2.125,3.721-.058,6.064-3.328,8.3-6.671a27.343,27.343,0,0,0,3.8-7.729,11.964,11.964,0,0,1-7.3-10.995ZM81.359,33.6a12.17,12.17,0,0,0,2.787-8.723,12.4,12.4,0,0,0-8.019,4.147,11.582,11.582,0,0,0-2.859,8.4c3.032.226,6.145-1.53,8.091-3.825Z" transform="translate(-23.899 -11.612)" fill="#fff"/>
  <path id="Path_134" data-name="Path 134" d="M395.512,0h-143.4l56.169,85.308h87.235A10.1,10.1,0,0,0,405.6,75.23V10.082A10.1,10.1,0,0,0,395.512,0Z" transform="translate(-117.692 0)" fill="url(#linear-gradient)"/>
  <g id="Group_75" data-name="Group 75" transform="translate(90.538 38.397)">
    <path id="Path_135" data-name="Path 135" d="M193.785,100.826h-4.846l-2.655-8.339h-9.227l-2.529,8.339h-4.718l9.143-28.39H184.6Zm-8.3-11.838-2.4-7.413q-.381-1.136-1.432-5.348h-.085q-.423,1.811-1.349,5.348l-2.36,7.413Zm31.769,1.35a11.59,11.59,0,0,1-2.838,8.254,8.322,8.322,0,0,1-6.312,2.7q-4.068,0-5.847-2.9v10.741h-4.549V87.083q0-3.28-.169-6.728h4l.254,3.245h.085a8.094,8.094,0,0,1,12.954-.8,11.318,11.318,0,0,1,2.42,7.543Zm-4.635.166a8.438,8.438,0,0,0-1.349-4.93,4.661,4.661,0,0,0-3.96-2.02,4.732,4.732,0,0,0-3.054,1.116,5.175,5.175,0,0,0-1.79,2.929,5.937,5.937,0,0,0-.211,1.384V92.4a5.476,5.476,0,0,0,1.37,3.772,4.548,4.548,0,0,0,3.559,1.538,4.663,4.663,0,0,0,4-1.98A8.711,8.711,0,0,0,212.618,90.5Zm28.186-.166a11.59,11.59,0,0,1-2.838,8.254,8.327,8.327,0,0,1-6.314,2.7q-4.068,0-5.847-2.9v10.741h-4.549V87.083q0-3.28-.169-6.728h4l.254,3.245h.085a8.1,8.1,0,0,1,12.957-.8,11.329,11.329,0,0,1,2.42,7.543Zm-4.637.166a8.438,8.438,0,0,0-1.351-4.93,4.654,4.654,0,0,0-3.956-2.02A4.751,4.751,0,0,0,227.8,84.67a5.171,5.171,0,0,0-1.788,2.929,6.073,6.073,0,0,0-.213,1.384V92.4a5.494,5.494,0,0,0,1.368,3.772,4.558,4.558,0,0,0,3.563,1.538,4.658,4.658,0,0,0,4-1.98A8.712,8.712,0,0,0,236.167,90.5Zm30.968,2.357a7.583,7.583,0,0,1-2.524,5.9q-2.772,2.483-7.735,2.485a13.5,13.5,0,0,1-7.353-1.768l1.052-3.791a12.659,12.659,0,0,0,6.572,1.771,6.2,6.2,0,0,0,4-1.158,3.784,3.784,0,0,0,1.436-3.093A3.964,3.964,0,0,0,261.4,90.3a10.96,10.96,0,0,0-3.918-2.189q-7.458-2.781-7.46-8.132a7.179,7.179,0,0,1,2.633-5.728,10.414,10.414,0,0,1,6.973-2.234,13.783,13.783,0,0,1,6.446,1.348l-1.142,3.708a11.273,11.273,0,0,0-5.456-1.306,5.549,5.549,0,0,0-3.764,1.18,3.375,3.375,0,0,0-1.142,2.573,3.476,3.476,0,0,0,1.308,2.78,14.737,14.737,0,0,0,4.127,2.189,13.991,13.991,0,0,1,5.392,3.452,7.193,7.193,0,0,1,1.735,4.924Zm15.08-9.094H277.2v9.939q0,3.792,2.654,3.789a7.993,7.993,0,0,0,2.021-.211l.126,3.454a10.309,10.309,0,0,1-3.538.5A5.453,5.453,0,0,1,274.25,99.6q-1.514-1.645-1.517-5.519V83.759h-2.987V80.346h2.987V76.6L277.2,75.25v5.1h5.014Zm22.58,6.654a11.228,11.228,0,0,1-2.7,7.75,9.615,9.615,0,0,1-7.5,3.117,9.166,9.166,0,0,1-7.185-2.987,10.887,10.887,0,0,1-2.676-7.539,11.137,11.137,0,0,1,2.759-7.791,9.565,9.565,0,0,1,7.439-3.034,9.358,9.358,0,0,1,7.244,2.991A10.745,10.745,0,0,1,304.8,90.422Zm-4.716.1a9.164,9.164,0,0,0-1.218-4.83,4.5,4.5,0,0,0-4.088-2.438A4.569,4.569,0,0,0,290.6,85.7a9.316,9.316,0,0,0-1.221,4.915,9.138,9.138,0,0,0,1.221,4.832,4.666,4.666,0,0,0,8.222-.041A9.2,9.2,0,0,0,300.08,90.526Zm19.51-6.172a7.915,7.915,0,0,0-1.434-.126,4.294,4.294,0,0,0-3.709,1.813,6.828,6.828,0,0,0-1.135,4.043v10.741h-4.549V86.8q.006-3.223-.132-6.445h3.963l.166,3.917h.126a7.023,7.023,0,0,1,2.275-3.245,5.5,5.5,0,0,1,3.288-1.1,7.3,7.3,0,0,1,1.137.083l0,4.339Zm20.346,5.267a10.665,10.665,0,0,1-.166,2.063H326.121a5.936,5.936,0,0,0,1.98,4.638,6.772,6.772,0,0,0,4.464,1.429,15.1,15.1,0,0,0,5.522-.966l.713,3.155a17.076,17.076,0,0,1-6.865,1.265,9.953,9.953,0,0,1-7.481-2.8,10.347,10.347,0,0,1-2.716-7.518,11.724,11.724,0,0,1,2.531-7.705,8.72,8.72,0,0,1,7.159-3.283,7.631,7.631,0,0,1,6.7,3.283A11.046,11.046,0,0,1,339.936,89.622Zm-4.338-1.18a6.156,6.156,0,0,0-.883-3.5,3.973,3.973,0,0,0-3.623-1.9A4.313,4.313,0,0,0,327.47,84.9a6.793,6.793,0,0,0-1.346,3.537l9.474,0Z" transform="translate(-169.812 -72.016)" fill="#fff"/>
  </g>
  <g id="Group_76" data-name="Group 76" transform="translate(93.202 13.979)">
    <path id="Path_136" data-name="Path 136" d="M178.077,41.02a29.055,29.055,0,0,1-3.271-.166V27.128a24.771,24.771,0,0,1,3.852-.29c5.217,0,7.62,2.566,7.62,6.75C186.278,38.413,183.44,41.02,178.077,41.02Zm.764-12.422a9.129,9.129,0,0,0-1.8.145V39.177a11.808,11.808,0,0,0,1.511.062c3.418,0,5.364-1.946,5.364-5.589C183.916,30.4,182.155,28.6,178.841,28.6Zm14.924,12.527c-2.94,0-4.846-2.2-4.846-5.175,0-3.106,1.946-5.32,5.012-5.32,2.9,0,4.846,2.091,4.846,5.156C198.778,38.929,196.77,41.124,193.765,41.124Zm.085-8.862c-1.615,0-2.65,1.51-2.65,3.622,0,2.071,1.056,3.582,2.629,3.582s2.629-1.615,2.629-3.624C196.458,33.794,195.423,32.263,193.851,32.263Zm21.695-1.427L212.4,40.9h-2.051l-1.3-4.369a33.136,33.136,0,0,1-.809-3.249h-.043a21.775,21.775,0,0,1-.807,3.249L206,40.9h-2.072l-2.962-10.061h2.3l1.139,4.783q.4,1.709.683,3.23h.043c.164-.847.433-1.905.828-3.208l1.43-4.8h1.822l1.368,4.7c.331,1.139.6,2.257.809,3.313h.06a28.961,28.961,0,0,1,.683-3.313l1.223-4.7,2.2,0ZM227.132,40.9H224.9V35.119c0-1.779-.683-2.671-2.029-2.671a2.322,2.322,0,0,0-2.236,2.464V40.9h-2.236V33.711c0-.89-.021-1.843-.083-2.878h1.967l.1,1.553h.062a3.615,3.615,0,0,1,3.19-1.758c2.113,0,3.5,1.615,3.5,4.243Zm6.167,0h-2.238V26.219H233.3Zm8.153.228c-2.938,0-4.846-2.2-4.846-5.175,0-3.106,1.946-5.32,5.01-5.32,2.9,0,4.846,2.091,4.846,5.156C246.465,38.929,244.455,41.124,241.452,41.124Zm.083-8.862c-1.615,0-2.65,1.51-2.65,3.622,0,2.071,1.058,3.582,2.627,3.582s2.629-1.615,2.629-3.624C244.143,33.794,243.11,32.263,241.536,32.263ZM255.28,40.9l-.162-1.158h-.06a3.436,3.436,0,0,1-2.943,1.387,2.926,2.926,0,0,1-3.083-2.961c0-2.483,2.153-3.767,5.881-3.767V34.21c0-1.325-.7-1.988-2.089-1.988a4.71,4.71,0,0,0-2.629.747l-.455-1.47a6.433,6.433,0,0,1,3.455-.87c2.629,0,3.956,1.387,3.956,4.162V38.5a15.2,15.2,0,0,0,.145,2.4Zm-.307-5.011c-2.484,0-3.73.6-3.73,2.029a1.426,1.426,0,0,0,1.534,1.572,2.141,2.141,0,0,0,2.2-2.048ZM268.01,40.9l-.1-1.615h-.062a3.374,3.374,0,0,1-3.231,1.843c-2.426,0-4.223-2.133-4.223-5.135,0-3.147,1.863-5.363,4.406-5.363a3.024,3.024,0,0,1,2.838,1.367h.045V26.219h2.238V38.185c0,.973.023,1.884.083,2.711H268.01Zm-.331-5.92a2.434,2.434,0,0,0-2.356-2.609c-1.658,0-2.672,1.47-2.672,3.539,0,2.029,1.052,3.418,2.627,3.418a2.511,2.511,0,0,0,2.4-2.671Zm16.43,6.148c-2.938,0-4.844-2.2-4.844-5.175,0-3.106,1.946-5.32,5.01-5.32,2.9,0,4.846,2.091,4.846,5.156C289.124,38.929,287.116,41.124,284.11,41.124Zm.083-8.862c-1.613,0-2.648,1.51-2.648,3.622,0,2.071,1.056,3.582,2.627,3.582s2.629-1.615,2.629-3.624C286.8,33.794,285.77,32.263,284.193,32.263ZM301.148,40.9H298.91V35.119c0-1.779-.683-2.671-2.029-2.671a2.321,2.321,0,0,0-2.234,2.464V40.9h-2.238V33.711c0-.89-.021-1.843-.083-2.878h1.967l.1,1.553h.062a3.613,3.613,0,0,1,3.188-1.76c2.112,0,3.5,1.615,3.5,4.243Zm15.046-8.384h-2.46V37.4c0,1.244.431,1.864,1.3,1.864a4.405,4.405,0,0,0,.992-.1l.062,1.7a4.955,4.955,0,0,1-1.735.25c-1.763,0-2.817-.973-2.817-3.52V32.512H310.07V30.836h1.468V28.992l2.2-.663v2.5h2.46v1.679ZM328.033,40.9H325.8V35.162c0-1.8-.681-2.711-2.029-2.711a2.193,2.193,0,0,0-2.238,2.381V40.9H319.3V26.219h2.234v6.044h.045a3.393,3.393,0,0,1,3.026-1.636c2.13,0,3.431,1.655,3.431,4.286V40.9ZM340.161,36.4H333.45a2.888,2.888,0,0,0,3.171,2.98,7.559,7.559,0,0,0,2.712-.476l.348,1.553a8.4,8.4,0,0,1-3.376.621c-3.147,0-5.01-1.988-5.01-5.071s1.908-5.4,4.759-5.4c2.571,0,4.184,1.905,4.184,4.783a4.308,4.308,0,0,1-.077,1.013Zm-2.051-1.594c0-1.553-.783-2.65-2.213-2.65a2.652,2.652,0,0,0-2.445,2.65Z" transform="translate(-174.806 -26.219)" fill="#fff"/>
  </g>
</svg>
