<svg xmlns="http://www.w3.org/2000/svg" width="17.852" height="14.619" viewBox="0 0 17.852 14.619">
  <path id="Icon_color" data-name="Icon color" d="M16.066,14.619H1.785A1.808,1.808,0,0,1,0,12.792V4.569A1.809,1.809,0,0,1,1.785,2.741H2.829A1.779,1.779,0,0,0,4.1,2.2L5.462.8A2.662,2.662,0,0,1,7.354,0H10.5a2.628,2.628,0,0,1,1.893.8l1.366,1.4a1.777,1.777,0,0,0,1.267.539h1.044a1.809,1.809,0,0,1,1.786,1.828v8.223A1.809,1.809,0,0,1,16.066,14.619ZM8.925,4.737a3.378,3.378,0,0,0-3.57,3.137,3.378,3.378,0,0,0,3.57,3.137,3.864,3.864,0,0,0,2.525-.919A2.939,2.939,0,0,0,12.5,7.874,3.378,3.378,0,0,0,8.925,4.737Z" fill="#009ee3"/>
</svg>
