<svg xmlns="http://www.w3.org/2000/svg" width="26.564" height="29.258" viewBox="0 0 26.564 29.258">
  <path id="Button" d="M106.3,801.262a9.923,9.923,0,0,1-1.663-.133l-.31-.058a6.32,6.32,0,0,1-3.923-2.382A7.81,7.81,0,0,1,99,793.9V780.364a10.43,10.43,0,0,1,.085-1.356c.5-3.815,3.126-6,7.21-6h10.968c4.525,0,7.251,2.712,7.294,7.251V793.9c0,4.607-2.728,7.36-7.294,7.36Zm-5.255-20.9V793.9c0,3.517,1.768,5.3,5.253,5.3h10.955c3.479,0,5.242-1.785,5.242-5.3V780.364c0-3.517-1.763-5.3-5.242-5.3H106.3C102.813,775.063,101.045,776.847,101.045,780.364Zm5.6,13.774a1.023,1.023,0,1,1,0-2.046h10.238a1.023,1.023,0,1,1,0,2.046Zm10.238-5.975H106.646a1.038,1.038,0,0,1,0-2.06h10.238a1.027,1.027,0,0,1,.981.479,1.048,1.048,0,0,1,0,1.1,1.026,1.026,0,0,1-.981.479Zm-10.226-5.975a1.037,1.037,0,0,1,0-2.059h3.895a1.037,1.037,0,0,1,0,2.059Z" transform="translate(-98.498 -772.504)" fill="#bfbfbf" stroke="rgba(0,0,0,0)" stroke-width="1"/>
</svg>
