<svg xmlns="http://www.w3.org/2000/svg" width="42.54" height="30.629" viewBox="0 0 42.54 30.629">
  <path id="icons8_secured_letter" d="M0,7V9.366C2.562,11.6,17.262,24.412,18.425,25.425a4.111,4.111,0,0,0,5.69,0c1.206-1.05,16.763-14.613,18.425-16.059V7Zm0,4.626v21.35L12.868,22.82C8.7,19.19,2.748,14.019,0,11.626Zm42.54,0c-2.6,2.26-8.638,7.511-12.868,11.193L42.54,32.949ZM14.171,23.963,0,35.13v2.5H42.54V35.1L28.369,23.963c-1.648,1.436-2.835,2.476-3.137,2.739A6.126,6.126,0,0,1,21.27,28.27,6.107,6.107,0,0,1,17.309,26.7C17.009,26.442,15.823,25.4,14.171,23.963Z" transform="translate(0 -7)" fill="#fff"/>
</svg>
