<svg id="_01" data-name="01" xmlns="http://www.w3.org/2000/svg" xmlns:xlink="http://www.w3.org/1999/xlink" width="32.143" height="32.143" viewBox="0 0 32.143 32.143">
  <defs>
    <clipPath id="clip-path">
      <circle id="ellipse" cx="16.071" cy="16.071" r="16.071" fill="#009ee3" stroke="#e2e2eb" stroke-width="1"/>
    </clipPath>
  </defs>
  <g id="Mask_Group_17" data-name="Mask Group 17" transform="translate(0)" clip-path="url(#clip-path)">
    <path id="icons8_facebook_1" d="M42.55,5.867H10.823A4.72,4.72,0,0,0,5.867,10.3V38.688a4.72,4.72,0,0,0,4.956,4.435H42.55a4.72,4.72,0,0,0,4.956-4.435V10.3A4.72,4.72,0,0,0,42.55,5.867ZM38.583,19.172H36.6c-2.122,0-2.974.443-2.974,1.775v2.661h4.956l-.991,4.435H33.626V41.348H28.67V28.043H24.7V23.608h3.965V20.947c0-3.548,1.983-6.209,5.949-6.209a6.681,6.681,0,0,1,3.965.887Z" transform="translate(-15.363 -10.98)" fill="#009ee3"/>
  </g>
</svg>
