<svg xmlns="http://www.w3.org/2000/svg" xmlns:xlink="http://www.w3.org/1999/xlink" width="147" height="134" viewBox="0 0 147 134">
  <defs>
    <clipPath id="clip-path">
      <rect id="Rectangle_663" data-name="Rectangle 663" width="147" height="134" transform="translate(386 1192)" fill="#009ee3"/>
    </clipPath>
  </defs>
  <g id="Mask_Group_22" data-name="Mask Group 22" transform="translate(-386 -1192)" clip-path="url(#clip-path)">
    <g id="_030-send" data-name="030-send" transform="translate(392.5 1192)">
      <path id="Path_62646" data-name="Path 62646" d="M78.9,34.235a7.713,7.713,0,0,0-10.4.5L55.385,47.842A7.743,7.743,0,0,0,58.856,60.8l68.664,18.4a1.974,1.974,0,0,0,2.4-2.4L116.413,26.367a1.963,1.963,0,1,0-3.793,1.016l11.172,41.695-35.8-43.409a3.8,3.8,0,0,1,.246-5.127L101.347,7.433a3.817,3.817,0,0,1,6.386,1.711l2.394,8.934a1.963,1.963,0,0,0,3.793-1.016l-2.394-8.934A7.743,7.743,0,0,0,98.571,4.657L85.462,17.765a7.835,7.835,0,0,0-.27,10.679l-6.02,6.02ZM59.872,57a3.817,3.817,0,0,1-1.711-6.386L71.27,37.51a3.8,3.8,0,0,1,5.127-.246l43.409,35.8ZM87.7,31.488l25.81,31.3-31.3-25.81Z" fill="#009ee3"/>
      <path id="Path_62647" data-name="Path 62647" d="M6.4,55.512a1.983,1.983,0,0,0-2.316,2.424l7.152,26.691a1.963,1.963,0,1,0,3.793-1.016L10.219,65.65l35.8,43.409a3.8,3.8,0,0,1-.246,5.127L32.664,127.295a3.817,3.817,0,0,1-6.386-1.711L17.525,92.916a1.963,1.963,0,0,0-3.793,1.016L22.485,126.6a7.664,7.664,0,0,0,5.476,5.475,7.869,7.869,0,0,0,2.039.271,7.659,7.659,0,0,0,5.44-2.275l13.109-13.108a7.835,7.835,0,0,0,.27-10.679l6.02-6.02a8.256,8.256,0,0,0,5.206,2.009,7.721,7.721,0,0,0,5.473-2.279L78.626,86.885A7.743,7.743,0,0,0,75.155,73.93L6.492,55.532c-.03-.008-.059-.013-.089-.02ZM46.309,103.24,20.5,71.944l31.3,25.81Zm27.83-25.517a3.817,3.817,0,0,1,1.711,6.386L62.741,97.217a3.8,3.8,0,0,1-5.127.246L14.2,61.663Z" fill="#fec01d"/>
      <path id="Path_62648" data-name="Path 62648" d="M53.681,120.138a1.964,1.964,0,0,0,0,2.777l10.533,10.532a2.022,2.022,0,0,0,2.777,0,1.964,1.964,0,0,0,0-2.777L56.457,120.138A1.964,1.964,0,0,0,53.681,120.138Z" fill="#fec01d"/>
      <path id="Path_62649" data-name="Path 62649" d="M80.053,132.8a1.963,1.963,0,0,0,1.388-3.352L64.3,112.3a1.963,1.963,0,0,0-2.777,2.777l17.146,17.146A1.957,1.957,0,0,0,80.053,132.8Z" fill="#fec01d"/>
      <path id="Path_62650" data-name="Path 62650" d="M82.666,114.995,72.134,104.462a1.963,1.963,0,0,0-2.777,2.777L79.89,117.771a2.022,2.022,0,0,0,2.777,0A1.963,1.963,0,0,0,82.666,114.995Z" fill="#fec01d"/>
      <path id="Path_62651" data-name="Path 62651" d="M68.7.575a1.963,1.963,0,0,0-2.777,2.777L76.458,13.884a2.022,2.022,0,0,0,2.777,0,1.964,1.964,0,0,0,0-2.777Z" fill="#009ee3"/>
      <path id="Path_62652" data-name="Path 62652" d="M51.474,1.8a1.964,1.964,0,0,0,0,2.777L68.619,21.722a2.022,2.022,0,0,0,2.777,0,1.964,1.964,0,0,0,0-2.777L54.25,1.8a1.964,1.964,0,0,0-2.777,0Z" fill="#009ee3"/>
      <path id="Path_62653" data-name="Path 62653" d="M50.249,19.027,60.781,29.56a2.022,2.022,0,0,0,2.777,0,1.964,1.964,0,0,0,0-2.777L53.026,16.251a1.963,1.963,0,0,0-2.777,2.777Z" fill="#009ee3"/>
    </g>
  </g>
</svg>
