<svg xmlns="http://www.w3.org/2000/svg" xmlns:xlink="http://www.w3.org/1999/xlink" width="56" height="52" viewBox="0 0 56 52">
  <defs>
    <clipPath id="clip-path">
      <rect id="Rectangle_8080" data-name="Rectangle 8080" width="56" height="52" transform="translate(144 946)" fill="#fff"/>
    </clipPath>
  </defs>
  <g id="Mask_Group_15755" data-name="Mask Group 15755" transform="translate(-144 -946)" clip-path="url(#clip-path)">
    <path id="details-f-svgrepo-com" d="M26,0A26,26,0,1,0,52,26,26,26,0,0,0,26,0Zm0,33.313a2.275,2.275,0,1,1-2.275,2.275A2.275,2.275,0,0,1,26,33.313Zm0-18.687a6.5,6.5,0,0,1,6.5,6.5,1.625,1.625,0,0,1-3.25,0A3.25,3.25,0,1,0,26,24.375,1.625,1.625,0,0,1,27.625,26v3.25a1.625,1.625,0,0,1-3.25,0V27.42A6.5,6.5,0,0,1,26,14.625Z" transform="translate(146 946)" fill="#009ee3" fill-rule="evenodd"/>
  </g>
</svg>
