<svg xmlns="http://www.w3.org/2000/svg" xmlns:xlink="http://www.w3.org/1999/xlink" width="25.643" height="25.643" viewBox="0 0 25.643 25.643">
  <defs>
    <clipPath id="clip-path">
      <rect id="Rectangle_8123" data-name="Rectangle 8123" width="25.643" height="25.643" transform="translate(0)" fill="#fff"/>
    </clipPath>
  </defs>
  <g id="Mask_Group_15771" data-name="Mask Group 15771" clip-path="url(#clip-path)">
    <path id="home-svgrepo-com" d="M14.707,4.418a1.2,1.2,0,0,0-.673,0,1.337,1.337,0,0,0-.411.243c-.248.188-.553.457-1.027.879l-6.3,5.6a6.951,6.951,0,0,0-1.144,1.123,2.4,2.4,0,0,0-.323.719,6.948,6.948,0,0,0-.079,1.6V20.6c0,1.047,0,1.759.047,2.309a2.591,2.591,0,0,0,.224,1,2.4,2.4,0,0,0,1.026,1.026,2.592,2.592,0,0,0,1,.224c.55.046,1.262.047,2.31.047h.2V21.6a4.81,4.81,0,0,1,9.62,0V25.2h.2c1.047,0,1.759,0,2.309-.047a2.592,2.592,0,0,0,1-.224,2.4,2.4,0,0,0,1.026-1.026,2.591,2.591,0,0,0,.224-1c.046-.55.047-1.262.047-2.309V14.583a6.94,6.94,0,0,0-.079-1.6,2.4,2.4,0,0,0-.323-.719,6.952,6.952,0,0,0-1.144-1.123l-6.3-5.6c-.474-.421-.778-.691-1.027-.879A1.337,1.337,0,0,0,14.707,4.418ZM13.361,2.109a3.608,3.608,0,0,1,2.018,0,3.651,3.651,0,0,1,1.19.635c.333.252.708.586,1.14.97l6.334,5.63.1.09a8.157,8.157,0,0,1,1.448,1.5,4.811,4.811,0,0,1,.646,1.438,8.154,8.154,0,0,1,.159,2.078v6.2c0,.984,0,1.8-.055,2.458a4.914,4.914,0,0,1-.487,1.909A4.81,4.81,0,0,1,23.8,27.066a4.914,4.914,0,0,1-1.91.487c-.661.055-1.474.055-2.458.055h-.518c-.146,0-.32,0-.473-.013a1.767,1.767,0,0,1-1.657-1.657c-.013-.153-.013-.327-.013-.473V21.6a2.405,2.405,0,0,0-4.81,0v3.87c0,.146,0,.32-.013.473A1.768,1.768,0,0,1,10.3,27.6c-.153.013-.327.013-.473.013H9.305c-.984,0-1.8,0-2.458-.055a4.914,4.914,0,0,1-1.909-.487,4.81,4.81,0,0,1-2.051-2.051A4.915,4.915,0,0,1,2.4,23.106c-.055-.661-.055-1.474-.055-2.458V14.583c0-.046,0-.091,0-.135A8.155,8.155,0,0,1,2.5,12.37a4.81,4.81,0,0,1,.646-1.438A8.155,8.155,0,0,1,4.6,9.433l.1-.09,6.334-5.63c.432-.384.807-.717,1.14-.97A3.651,3.651,0,0,1,13.361,2.109Z" transform="translate(-1.548 -1.965)" fill="#b7b7b7" fill-rule="evenodd"/>
  </g>
</svg>
