<svg xmlns="http://www.w3.org/2000/svg" xmlns:xlink="http://www.w3.org/1999/xlink" width="45.511" height="42.094" viewBox="0 0 45.511 42.094">
  <defs>
    <clipPath id="clip-path">
      <rect id="Rectangle_7969" data-name="Rectangle 7969" width="31.691" height="40.094" fill="#1a86c8" stroke="#707070" stroke-width="1"/>
    </clipPath>
  </defs>
  <g id="Group_15321" data-name="Group 15321" transform="translate(-2.254 2.082)">
    <path id="Path_63115" data-name="Path 63115" d="M18.378,0c10.15,0,18.378,8.583,18.378,19.17s-8.228,19.17-18.378,19.17S0,29.757,0,19.17,8.228,0,18.378,0Z" transform="translate(2.254 -2.082)" fill="#009ee3" opacity="0.26"/>
    <g id="Group_33" data-name="Group 33" transform="translate(16.074 -0.082)" clip-path="url(#clip-path)">
      <g id="Layer_x0020_1" transform="translate(-6.993)">
        <g id="_393450736">
          <rect id="_393570144" width="41.868" height="41.868" fill="none"/>
          <rect id="_393570696" width="31.268" height="31.268" transform="translate(5.124 5.211)" fill="none"/>
        </g>
        <path id="Icon_feather-phone-call" data-name="Icon feather-phone-call" d="M18.123,6.342a5.922,5.922,0,0,1,4.566,4.782M18.123,1.5a10.658,10.658,0,0,1,9.19,9.612m-1.156,9.66V24.4a2.475,2.475,0,0,1-.749,1.794,2.248,2.248,0,0,1-1.771.627,22.222,22.222,0,0,1-9.976-3.716,23.1,23.1,0,0,1-6.936-7.263A24.7,24.7,0,0,1,3.177,5.35a2.494,2.494,0,0,1,.6-1.85,2.266,2.266,0,0,1,1.705-.789H8.945a2.348,2.348,0,0,1,2.312,2.082,16.148,16.148,0,0,0,.809,3.4,2.5,2.5,0,0,1-.52,2.554l-1.468,1.537a18.956,18.956,0,0,0,6.936,7.263l1.468-1.537a2.237,2.237,0,0,1,2.439-.545,14.3,14.3,0,0,0,3.248.847A2.391,2.391,0,0,1,26.157,20.772Z" transform="translate(7.263 6.766)" fill="none" stroke="#fff" stroke-linecap="round" stroke-linejoin="round" stroke-width="3"/>
      </g>
    </g>
  </g>
</svg>
