<svg id="Group_4" data-name="Group 4" xmlns="http://www.w3.org/2000/svg" width="29.614" height="26.654" viewBox="0 0 29.614 26.654">
  <path id="Path_5" data-name="Path 5" d="M26.82,9.028a2.553,2.553,0,0,1,4.868.681c.373,2.784.811,3.636.977,3.873a4.586,4.586,0,0,0,2.9,1.67A11.81,11.81,0,0,1,40,17.385V33.276a15.786,15.786,0,0,1-4.72.877H27.063a3.61,3.61,0,0,1-3.607-3.607,1.459,1.459,0,0,1,.083-.48,3.109,3.109,0,0,1-2.049-2.92,1.925,1.925,0,0,1,.468-1.273,3.157,3.157,0,0,1-1.5-2.695,2,2,0,0,1,.142-.734A2.605,2.605,0,0,1,18.226,20.1a2.562,2.562,0,0,1,.74-1.984,2.528,2.528,0,0,1,1.795-.746h7.261a18.065,18.065,0,0,1-1.564-5.176A6.178,6.178,0,0,1,26.82,9.028Z" transform="translate(-18.219 -7.498)" fill="#009ee3"/>
  <path id="Path_6" data-name="Path 6" d="M11.052,40.127H5.592A.587.587,0,0,1,5,39.535V22.744a.59.59,0,0,1,.592-.592h5.461a.594.594,0,0,1,.592.592V39.535A.59.59,0,0,1,11.052,40.127Z" transform="translate(17.969 -13.473)" fill="#009ee3"/>
</svg>
