<svg xmlns="http://www.w3.org/2000/svg" width="40.11" height="40.11" viewBox="0 0 40.11 40.11">
  <g id="Group_18128" data-name="Group 18128" transform="translate(-525.374 -5290.487)">
    <ellipse id="Ellipse_11" data-name="Ellipse 11" cx="20.055" cy="20.055" rx="20.055" ry="20.055" transform="translate(525.374 5290.487)" fill="#1977f3"/>
    <g id="Group_8" data-name="Group 8" transform="translate(536.4 5301.863)">
      <path id="Path_5" data-name="Path 5" d="M22.874,8.327a1.382,1.382,0,0,1,2.635.369,5.362,5.362,0,0,0,.529,2.1,2.482,2.482,0,0,0,1.571.9,6.392,6.392,0,0,1,2.4,1.154v8.6a8.544,8.544,0,0,1-2.555.474H23.006a1.954,1.954,0,0,1-1.952-1.952.79.79,0,0,1,.045-.26,1.683,1.683,0,0,1-1.109-1.58,1.042,1.042,0,0,1,.253-.689,1.709,1.709,0,0,1-.814-1.459,1.083,1.083,0,0,1,.077-.4,1.41,1.41,0,0,1-1.282-1.269,1.387,1.387,0,0,1,.4-1.074,1.368,1.368,0,0,1,.971-.4h3.93a9.778,9.778,0,0,1-.846-2.8A3.344,3.344,0,0,1,22.874,8.327Z" transform="translate(-18.219 -7.498)" fill="#fff"/>
      <path id="Path_6" data-name="Path 6" d="M8.276,31.881H5.32A.317.317,0,0,1,5,31.56V22.472a.319.319,0,0,1,.321-.321H8.276a.322.322,0,0,1,.321.321V31.56A.319.319,0,0,1,8.276,31.881Z" transform="translate(7.432 -17.454)" fill="#fff"/>
    </g>
  </g>
</svg>
