<svg xmlns="http://www.w3.org/2000/svg" width="40.11" height="40.11" viewBox="0 0 40.11 40.11">
  <g id="Group_18127" data-name="Group 18127" transform="translate(-493.366 -5289.021)">
    <ellipse id="Ellipse_12" data-name="Ellipse 12" cx="20.055" cy="20.055" rx="20.055" ry="20.055" transform="translate(493.366 5289.021)" fill="#f31954"/>
    <g id="heart" transform="translate(504.348 5302.839)">
      <g id="Group_9" data-name="Group 9" transform="translate(0 0)">
        <path id="Path_9" data-name="Path 9" d="M4.924,35.514h0a4.88,4.88,0,0,1,3.759,1.737,4.814,4.814,0,0,1,3.759-1.737,4.924,4.924,0,0,1,4.924,4.924c0,4.66-8.133,9.21-8.463,9.386a.4.4,0,0,1-.44,0C8.133,49.649,0,45.164,0,40.438A4.924,4.924,0,0,1,4.924,35.514Z" transform="translate(0 -35.514)" fill="#fff"/>
      </g>
    </g>
  </g>
</svg>
