<svg xmlns="http://www.w3.org/2000/svg" width="34.454" height="34.458" viewBox="0 0 34.454 34.458">
  <path id="icons8_phone" d="M31.217,37.456H31.18c-5.885-.193-12.78-5.9-17.531-10.651S3.187,15.153,3,9.295C2.936,7.239,7.981,3.584,8.033,3.547a2.427,2.427,0,0,1,3.359.239c.4.56,4.228,6.353,4.644,7.011a2.759,2.759,0,0,1-.171,2.716c-.3.566-1.282,2.3-1.744,3.1a41.151,41.151,0,0,0,4.54,5.173,41.223,41.223,0,0,0,5.176,4.543c.808-.462,2.539-1.447,3.1-1.744a2.771,2.771,0,0,1,2.7-.177c.7.431,6.482,4.273,7.014,4.643a2.008,2.008,0,0,1,.792,1.481,2.9,2.9,0,0,1-.548,1.887C36.866,32.473,33.254,37.456,31.217,37.456Z" transform="translate(-3.003 -2.998)" fill="#009ee3"/>
</svg>
