<svg xmlns="http://www.w3.org/2000/svg" xmlns:xlink="http://www.w3.org/1999/xlink" width="28.708" height="27.113" viewBox="0 0 28.708 27.113">
  <defs>
    <clipPath id="clip-path">
      <rect id="Rectangle_8127" data-name="Rectangle 8127" width="28.708" height="27.113" transform="translate(178 697.42)" fill="#bfbfbf"/>
    </clipPath>
  </defs>
  <g id="Mask_Group_15774" data-name="Mask Group 15774" transform="translate(-178 -697.42)" clip-path="url(#clip-path)">
    <g id="File_Note_Edit" data-name="File / Note_Edit" transform="translate(180.145 698.203)">
      <path id="Vector" d="M11.877,4.559H8.014a6.857,6.857,0,0,0-2.908.3A2.757,2.757,0,0,0,3.9,6.065a6.857,6.857,0,0,0-.3,2.908V22.215a6.852,6.852,0,0,0,.3,2.907,2.759,2.759,0,0,0,1.205,1.206,6.844,6.844,0,0,0,2.9.3H21.26a6.838,6.838,0,0,0,2.9-.3,2.763,2.763,0,0,0,1.207-1.206,6.84,6.84,0,0,0,.3-2.9V18.353M20.153,5.938l-8.276,8.276v4.138h4.138l8.276-8.276M20.153,5.938,24.291,1.8l4.138,4.138-4.138,4.138M20.153,5.938l4.138,4.138" transform="translate(-3.6 -1.8)" fill="none" stroke="#bfbfbf" stroke-linecap="round" stroke-linejoin="round" stroke-width="1.8"/>
    </g>
  </g>
</svg>
