<svg xmlns="http://www.w3.org/2000/svg" xmlns:xlink="http://www.w3.org/1999/xlink" width="131" height="131" viewBox="0 0 131 131">
  <defs>
    <clipPath id="clip-path">
      <rect id="Rectangle_8106" data-name="Rectangle 8106" width="131" height="131" transform="translate(-0.161 -0.382)" fill="#fff"/>
    </clipPath>
  </defs>
  <g id="Mask_Group_15761" data-name="Mask Group 15761" transform="translate(0.161 0.382)" clip-path="url(#clip-path)">
    <g id="Layer_x0020_1" transform="translate(0 0)">
      <rect id="Rectangle_8107" data-name="Rectangle 8107" width="131" height="131" transform="translate(-0.161 -0.382)" fill="none"/>
      <g id="_1316253512688" transform="translate(7.439 17.336)">
        <path id="Path_75369" data-name="Path 75369" d="M61.036,40.153,44.342,15.325,27.647,40.153h9.4v49.19H51.638V40.153Z" transform="translate(-2.751 -14.738)" fill="#fec01d"/>
        <path id="Path_75370" data-name="Path 75370" d="M37.736,88.825H51.122V40.238a.6.6,0,0,1,.6-.6h8.266L44.429,16.491,28.867,39.635h8.266a.6.6,0,0,1,.6.6Zm13.989,1.207H37.133a.6.6,0,0,1-.6-.6V40.842h-8.8a.6.6,0,0,1-.5-.94L43.928,15.073a.627.627,0,0,1,1,0L61.624,39.9a.6.6,0,0,1-.5.94H52.329V89.429a.6.6,0,0,1-.6.6Z" transform="translate(-2.838 -14.823)"/>
        <path id="Path_75371" data-name="Path 75371" d="M31.268,52.778,21.613,39.763,11.959,52.778h5.435V78.565h8.439V52.778Z" transform="translate(-5.411 -10.594)" fill="#fff"/>
        <path id="Path_75372" data-name="Path 75372" d="M18.085,78.047h7.233V52.864a.6.6,0,0,1,.6-.6h4.236L21.7,40.861l-8.455,11.4h4.236a.6.6,0,0,1,.6.6Zm7.836,1.207h-8.44a.6.6,0,0,1-.6-.6V53.468H12.046a.6.6,0,0,1-.484-.963l9.655-13.016a.624.624,0,0,1,.969,0L31.84,52.5a.6.6,0,0,1-.485.963H26.524V78.651a.6.6,0,0,1-.6.6Z" transform="translate(-5.499 -10.68)"/>
        <path id="Path_75373" data-name="Path 75373" d="M22.095,101.051l49.217.547c4.5.05,9.058.094,13.436-.956s8.629-3.329,11.153-7.057,2.942-9.046.26-12.661a11.11,11.11,0,0,0-9.6-4.068c-3.617.236-5.008,1.121-7.842,3.382a12.621,12.621,0,0,0,.913-5.647A11.646,11.646,0,0,0,76.6,67.946,17.131,17.131,0,0,0,46.728,76.51c-1.65-6.358-9.646-9.937-15.729-7.455s-9.347,10-7.6,16.337c-1.432-2.742-4.908-4.035-7.943-3.437a11.369,11.369,0,0,0-7.2,5.434A7.742,7.742,0,0,0,6.91,92.2c.322,2.781,2.817,4.784,5.313,6.053a27.311,27.311,0,0,0,9.872,2.8Z" transform="translate(-6.273 -6.812)" fill="#fff"/>
        <path id="Path_75374" data-name="Path 75374" d="M22.19,100.537l49.217.547c4.4.05,8.956.1,13.288-.941,4.762-1.143,8.6-3.561,10.794-6.808,2.53-3.737,2.646-8.768.275-11.963a10.429,10.429,0,0,0-9.078-3.826c-3.428.223-4.711,1.023-7.505,3.252a.6.6,0,0,1-.952-.653l.158-.5a10.484,10.484,0,0,0-2.15-11.218,16.529,16.529,0,0,0-28.823,8.263.6.6,0,0,1-1.18.058,10.357,10.357,0,0,0-5.546-6.49,11.53,11.53,0,0,0-9.37-.559c-5.629,2.3-8.949,9.449-7.249,15.619a.6.6,0,0,1-1.117.439,6.858,6.858,0,0,0-7.292-3.124,10.713,10.713,0,0,0-6.8,5.156A7.081,7.081,0,0,0,7.6,92.219c.31,2.679,2.883,4.515,4.987,5.585a26.854,26.854,0,0,0,9.606,2.733Zm52.069,1.775c-.96,0-1.916-.01-2.865-.022l-49.217-.547a27.772,27.772,0,0,1-10.139-2.864C9.67,97.676,6.77,95.568,6.4,92.357a8.226,8.226,0,0,1,1.432-5.195,11.913,11.913,0,0,1,7.594-5.711,8.38,8.38,0,0,1,7.039,1.8c-.587-6.151,2.846-12.4,8.4-14.663a12.749,12.749,0,0,1,10.367.6,12.024,12.024,0,0,1,5.438,5.3A17.728,17.728,0,0,1,77.147,67.64a12.336,12.336,0,0,1,3.171,7,10.939,10.939,0,0,1-.379,4.053,10.916,10.916,0,0,1,6.669-2.348,11.646,11.646,0,0,1,10.126,4.311c2.666,3.593,2.564,9.211-.245,13.359-2.367,3.5-6.456,6.091-11.511,7.3a45.729,45.729,0,0,1-10.718.995Z" transform="translate(-6.36 -6.901)"/>
        <path id="Path_75375" data-name="Path 75375" d="M42.406,96.194a1.057,1.057,0,0,1-.257-.031l1.122.012-.84.018h-.026Z" transform="translate(-0.292 -1.031)" fill="#dedede"/>
        <path id="Path_75376" data-name="Path 75376" d="M73.625,96.183c-.953,0-1.9-.01-2.846-.021L46.818,95.9c0-.025.006-.05.011-.075-.691.011-1.381.03-2.072.052l-19.318-.215c-.607-.047-1.214-.1-1.822-.13a30.646,30.646,0,0,1-4.359-.249c-.821-.162-1.644-.347-2.471-.542a27.192,27.192,0,0,1-4.831-1.855,15.1,15.1,0,0,1-1.894-1.135,1.336,1.336,0,0,1,.677-.986,1.247,1.247,0,0,1,.69-.189,4.005,4.005,0,0,1,.959.168c.934.216,1.882.364,2.818.573a52.153,52.153,0,0,0,5.144.995c2.116.105,4.236.1,6.35.273,3.266.038,6.533,0,9.8.125.978.065,1.955.088,2.933.088,2.227,0,4.455-.12,6.684-.14q1.543-.015,3.087-.014c4.046,0,8.092.067,12.138.142,2.7.037,5.395-.05,8.084.184.444.031.888.043,1.332.043,1.4,0,2.81-.119,4.215-.124,3.991-.1,9,.024,11.865-.589a26.964,26.964,0,0,0,3.447-.85l.062-.029a1.526,1.526,0,0,1,.87-.288,1.127,1.127,0,0,1,.82.328,20.081,20.081,0,0,1-7.969,3.765,44.7,44.7,0,0,1-10.442.961Z" transform="translate(-5.733 -1.979)" fill="#dedede"/>
        <path id="Path_75377" data-name="Path 75377" d="M79.214,93.338q.457-.284.89-.587A4.114,4.114,0,0,1,79.214,93.338Z" transform="translate(5.993 -1.61)" fill="#dedede"/>
        <path id="Path_75378" data-name="Path 75378" d="M48.716,97l-1.122-.012a1.1,1.1,0,0,1-.773-1.215l23.961.266c.943.01,1.893.021,2.846.021a44.7,44.7,0,0,0,10.442-.961,20.081,20.081,0,0,0,7.969-3.765A1.156,1.156,0,0,1,92.3,92.39a1.923,1.923,0,0,1-.467.6q-.433.3-.89.587a17.179,17.179,0,0,1-4.9,1.292,1.4,1.4,0,0,1-.945.691,11.707,11.707,0,0,1-1.887.555,49.9,49.9,0,0,1-6.916.556c-1.527.116-3.053.157-4.579.157-2.435,0-4.871-.1-7.307-.162-5.232.094-10.465.216-15.7.328Zm-9.3-1.106c-3.679-.128-7.359-.242-11.04-.242h-.511c-.809,0-1.616-.056-2.422-.118l19.318.215c-1.781.056-3.562.133-5.345.144ZM16.79,94.609c-1.88-.445-3.777-.943-5.7-1.338a1.431,1.431,0,0,1-1.022-1.652,15.111,15.111,0,0,0,1.894,1.135,27.2,27.2,0,0,0,4.831,1.855Z" transform="translate(-5.735 -1.851)"/>
        <path id="Path_75379" data-name="Path 75379" d="M81.915,79.824,94.555,92.259a82.978,82.978,0,0,0,6.881,6.283,7.478,7.478,0,0,0,4.354,1.993,3.294,3.294,0,0,0,3.27-3.139,5.418,5.418,0,0,0-1.885-3.487q-10.062-10.613-21-20.094c-1.335,1.955-2.669,3.911-4.257,6.009Z" transform="translate(6.451 -4.82)" fill="#fff"/>
        <path id="Path_75380" data-name="Path 75380" d="M82.8,79.852,95.066,91.915a82.976,82.976,0,0,0,6.829,6.238,6.959,6.959,0,0,0,3.982,1.864h0a2.813,2.813,0,0,0,1.94-.845,2.376,2.376,0,0,0,.724-1.687,4.882,4.882,0,0,0-1.719-3.075C100.311,87.542,93.435,80.948,86.377,74.8c-1.115,1.632-2.267,3.3-3.574,5.05Zm23.076,21.373h0a7.959,7.959,0,0,1-4.725-2.122,84.064,84.064,0,0,1-6.932-6.327L81.58,80.341a.6.6,0,0,1-.058-.794c1.574-2.081,2.924-4.058,4.228-5.968a.627.627,0,0,1,.427-.267.605.605,0,0,1,.479.134C93.923,79.744,101,86.518,107.7,93.58a5.933,5.933,0,0,1,2.051,3.9,3.573,3.573,0,0,1-1.074,2.545,4.045,4.045,0,0,1-2.8,1.2Z" transform="translate(6.363 -4.907)"/>
        <path id="Path_75381" data-name="Path 75381" d="M71.667,85.993A19.956,19.956,0,1,1,91.623,66.038,19.956,19.956,0,0,1,71.667,85.993Zm0,0A19.956,19.956,0,1,1,91.623,66.038,19.956,19.956,0,0,1,71.667,85.993Zm0-46.231A26.275,26.275,0,1,0,97.942,66.038,26.275,26.275,0,0,0,71.667,39.763Z" transform="translate(0.258 -10.594)" fill="#fff"/>
        <path id="Path_75382" data-name="Path 75382" d="M52.4,66.125A19.352,19.352,0,1,0,71.754,46.773,19.374,19.374,0,0,0,52.4,66.125ZM71.754,86.684A20.559,20.559,0,1,1,92.314,66.125,20.582,20.582,0,0,1,71.754,86.684Zm0-46.231A25.672,25.672,0,1,0,97.426,66.125,25.7,25.7,0,0,0,71.754,40.454Zm0,52.55A26.878,26.878,0,1,1,98.633,66.125,26.909,26.909,0,0,1,71.754,93Z" transform="translate(0.17 -10.682)"/>
        <path id="Path_75383" data-name="Path 75383" d="M84.842,79.891l-.055-.008a.2.2,0,0,1-.138-.248l.463-1.618a.2.2,0,0,1,.248-.138.2.2,0,0,1,.139.249l-.463,1.617a.2.2,0,0,1-.194.146Z" transform="translate(6.913 -4.133)"/>
        <path id="Path_75384" data-name="Path 75384" d="M86.731,82.9l-.026,0a.2.2,0,0,1-.173-.225c.246-1.889.544-3.8.886-5.677a.2.2,0,0,1,.4.072c-.34,1.871-.637,3.774-.884,5.657a.2.2,0,0,1-.2.175Z" transform="translate(7.233 -4.309)"/>
        <path id="Path_75385" data-name="Path 75385" d="M89.185,85.3a.2.2,0,0,1-.2-.2c0-.947.146-2.534.274-3.934.078-.854.146-1.591.169-2.055a.193.193,0,0,1,.211-.19.2.2,0,0,1,.191.211c-.024.471-.092,1.212-.17,2.07-.128,1.392-.273,2.97-.273,3.9a.2.2,0,0,1-.2.2Z" transform="translate(7.649 -3.956)"/>
        <path id="Path_75386" data-name="Path 75386" d="M91.72,87.719a.2.2,0,0,1-.2-.2l-.151-6.71a.2.2,0,0,1,.2-.206h0a.2.2,0,0,1,.2.2l.151,6.711a.2.2,0,0,1-.2.206h0Z" transform="translate(8.053 -3.669)"/>
        <path id="Path_75387" data-name="Path 75387" d="M94.127,90.3a.2.2,0,0,1-.2-.193l-.263-7.028a.2.2,0,0,1,.194-.209.2.2,0,0,1,.209.194l.263,7.028a.2.2,0,0,1-.194.208h-.008Z" transform="translate(8.442 -3.285)"/>
        <path id="Path_75388" data-name="Path 75388" d="M96.574,92.374a.2.2,0,0,1-.2-.19l-.355-6.565a.2.2,0,0,1,.4-.022l.355,6.564a.2.2,0,0,1-.19.212h-.011Z" transform="translate(8.842 -2.855)"/>
        <path id="Path_75389" data-name="Path 75389" d="M99,94.327a.2.2,0,0,1-.2-.186L98.31,87.75a.2.2,0,0,1,.185-.216.194.194,0,0,1,.216.185l.492,6.391a.2.2,0,0,1-.185.215H99Z" transform="translate(9.23 -2.495)"/>
        <path id="Path_75390" data-name="Path 75390" d="M101.3,95.989a.2.2,0,0,1-.2-.18L100.52,90.2a.2.2,0,0,1,.4-.04l.576,5.6a.2.2,0,0,1-.18.221H101.3Z" transform="translate(9.605 -2.079)"/>
        <path id="Path_75391" data-name="Path 75391" d="M103.5,95.284a.2.2,0,0,1-.2-.169l-.4-2.5a.2.2,0,0,1,.4-.065l.4,2.5a.2.2,0,0,1-.167.231l-.032,0Z" transform="translate(10.008 -1.673)"/>
        <path id="Path_75392" data-name="Path 75392" d="M70.663,81.974A19.364,19.364,0,0,1,51.5,59.912q.293,1.009.648,2a7.5,7.5,0,0,0,.5,2.723c.259.9.5,1.8.831,2.683A17.477,17.477,0,0,0,55.909,72.2h0a28.991,28.991,0,0,0,4.576,4.339,14.149,14.149,0,0,0,5.5,2.633,15.47,15.47,0,0,0,3.763.477,18.981,18.981,0,0,0,3.585-.385,21.258,21.258,0,0,0,9.908-4.01,1,1,0,0,1,.337-.133c.644-.491,1.276-1.009,1.936-1.6a27.109,27.109,0,0,0,2.213-2.432c.388-.457.653-1.028,1-1.521a19.384,19.384,0,0,1-18.062,12.4ZM54.571,75.4l-.1-.112a14.069,14.069,0,0,1-2.829-4.874A20.563,20.563,0,0,0,54.571,75.4Zm32.443-.33a20.646,20.646,0,0,0,2.181-3.55l-.148.411c-.29.671-.6,1.337-.918,2-.306.35-.683.736-1.115,1.143Z" transform="translate(1.261 -7.178)" fill="#dedede"/>
        <path id="Path_75393" data-name="Path 75393" d="M70.1,82.645a12.473,12.473,0,0,1-2.242-.2l-.02,0a22.018,22.018,0,0,1-3.582-.621,21.632,21.632,0,0,1-5.87-3.193,23.75,23.75,0,0,1-3.718-3.206,20.564,20.564,0,0,1-2.932-4.986c-.3-.856-.522-1.7-.728-2.514a31.9,31.9,0,0,1-.043-8.142c.029,0,.057,0,.085,0a1.3,1.3,0,0,1,.536.119l.01.035a19.354,19.354,0,0,0,37.225,9.66A3.119,3.119,0,0,1,89.35,69a.954.954,0,0,1,.492-.134,1.063,1.063,0,0,1,.386.073q-.462,1.3-.935,2.605a20.648,20.648,0,0,1-2.181,3.55,32.518,32.518,0,0,1-4.838,3.721,15.566,15.566,0,0,1-1.394.929,26.216,26.216,0,0,1-6.032,2.143,17.235,17.235,0,0,1-3.027.657,15.355,15.355,0,0,1-1.72.1Z" transform="translate(1.162 -7.2)"/>
        <path id="Path_75394" data-name="Path 75394" d="M71.317,89.66A26.513,26.513,0,0,1,61.8,87.439a47.652,47.652,0,0,1-5.545-2.431,24.92,24.92,0,0,1-3.392-2.7A35.11,35.11,0,0,1,49.119,78a11.871,11.871,0,0,1-2.14-3.4,1.132,1.132,0,0,1,.81-1.4,26.853,26.853,0,0,0,40.532,8.049l1.387,1.365a1.1,1.1,0,0,1-.113.4c-.143.443-.585.676-.93.952a24.708,24.708,0,0,1-3.824,2.41,32.085,32.085,0,0,1-4.9,2.042A65.84,65.84,0,0,1,71.7,89.654c-.128,0-.256.006-.386.006Z" transform="translate(0.519 -4.926)" fill="#dedede"/>
        <path id="Path_75395" data-name="Path 75395" d="M84.762,81.7,83.11,80.076a27.1,27.1,0,0,0,4.134-4.624q.98.862,1.955,1.737a1.454,1.454,0,0,1-.075.137,9.848,9.848,0,0,1-.963,1.3q.112-.663.232-1.321a.2.2,0,0,0-.4-.072q-.179.983-.341,1.975a9.281,9.281,0,0,1-2.84,2.464l-.055.032Zm.8-3.421a.2.2,0,0,0-.192.146l-.463,1.618a.2.2,0,0,0,.138.248l.055.008a.2.2,0,0,0,.194-.146l.463-1.617a.2.2,0,0,0-.139-.249.2.2,0,0,0-.056-.008Z" transform="translate(6.653 -4.543)" fill="#dedede"/>
        <path id="Path_75396" data-name="Path 75396" d="M83.708,82.312l-1.387-1.365q.47-.381.924-.784L84.9,81.788a1.7,1.7,0,0,1-.818.214,1.681,1.681,0,0,1-.388-.046,1.273,1.273,0,0,1,.018.356Zm5.626-5.037q-.975-.874-1.955-1.737.209-.3.411-.6h.04a1.611,1.611,0,0,1,.449.066,1.659,1.659,0,0,1,1.055,2.271Z" transform="translate(6.519 -4.63)"/>
        <path id="Path_75397" data-name="Path 75397" d="M71.281,87.255A26.9,26.9,0,0,1,47.665,73.2a1.192,1.192,0,0,1,.342-.051,1.036,1.036,0,0,1,.863.452,11.469,11.469,0,0,0,.866,1.56A32.328,32.328,0,0,0,56,81.66a25.268,25.268,0,0,0,6.561,3.13c.993.369,1.959.817,2.984,1.093a36.811,36.811,0,0,0,4.03.831c.659.064,1.153.094,1.578.094a21.306,21.306,0,0,0,3.225-.4,41.661,41.661,0,0,0,5.885-1.258,25.814,25.814,0,0,0,5.706-2.624,6.915,6.915,0,0,0,1.144-.843,1.5,1.5,0,0,1,1.141-.542h.028a1.626,1.626,0,0,1,.262-1.682,2.333,2.333,0,0,1,.8-.65l.018-.015a23.784,23.784,0,0,0,2.559-2.235l.067-.08a2.228,2.228,0,0,1,1.673-1.237q-.2.3-.411.6a27.108,27.108,0,0,1-4.134,4.624q-.453.4-.924.784a26.747,26.747,0,0,1-16.915,6.005Z" transform="translate(0.643 -4.933)"/>
        <path id="Path_75398" data-name="Path 75398" d="M84.842,79.891l-.055-.008a.2.2,0,0,1-.138-.248l.463-1.618a.2.2,0,0,1,.192-.146.2.2,0,0,1,.056.008.2.2,0,0,1,.139.249l-.463,1.617a.2.2,0,0,1-.194.146Z" transform="translate(6.913 -4.133)"/>
        <path id="Path_75399" data-name="Path 75399" d="M87,78.971q.162-.99.341-1.975a.2.2,0,0,1,.4.072q-.12.659-.232,1.321c-.139.163-.282.323-.426.48-.026.035-.052.069-.078.1Z" transform="translate(7.312 -4.309)"/>
        <path id="Path_75400" data-name="Path 75400" d="M61.861,73.273a.6.6,0,0,1-.6-.6V59.423a.6.6,0,1,1,1.207,0V72.669A.6.6,0,0,1,61.861,73.273Z" transform="translate(2.948 -7.363)"/>
        <path id="Path_75401" data-name="Path 75401" d="M73.212,73.273a.6.6,0,0,1-.6-.6V59.423a.6.6,0,1,1,1.207,0V72.669A.6.6,0,0,1,73.212,73.273Z" transform="translate(4.872 -7.363)"/>
        <path id="Path_75402" data-name="Path 75402" d="M67.536,74.443a.6.6,0,0,1-.6-.6V52.519a.6.6,0,0,1,1.207,0V73.84A.6.6,0,0,1,67.536,74.443Z" transform="translate(3.91 -8.534)"/>
        <path id="Path_75403" data-name="Path 75403" d="M41.605,74.048A12.016,12.016,0,0,0,36.2,68.761v-1.6a1.351,1.351,0,0,1,.165-.026c.056,0,.111-.006.167-.006a5.673,5.673,0,0,1,2.117.6,7.678,7.678,0,0,1,2.334,1.443,13.552,13.552,0,0,1,2.491-3.1c.782-.591,1.714-1.95,2.729-1.95a1.092,1.092,0,0,1,.24.026c.047.573.114,1.144.2,1.708a18.088,18.088,0,0,0-5.033,8.186Z" transform="translate(-1.301 -6.463)" fill="#96b9d7"/>
        <path id="Path_75404" data-name="Path 75404" d="M36.328,68.321,36.3,68.3q-.422-.211-.856-.393a1.175,1.175,0,0,1,.889-1.187v1.6Z" transform="translate(-1.43 -6.023)"/>
        <path id="Path_75405" data-name="Path 75405" d="M41.749,74.787a1.094,1.094,0,0,1-1.067-.709,2.065,2.065,0,0,1,.019-1.266,1.317,1.317,0,0,1-.506-.873,5.612,5.612,0,0,0-3.866-2.645,1.181,1.181,0,0,1-.889-1.195q.434.181.856.393l.032.017A12.015,12.015,0,0,1,41.734,73.8a18.088,18.088,0,0,1,5.033-8.186c.039.261.081.521.128.78a5.53,5.53,0,0,0-.675.615,18.35,18.35,0,0,0-1.875,2.025,7.265,7.265,0,0,0-1,1.536c-.038.075-.072.153-.107.23-.173.391-.225.834-.357,1.238l.043.065a1.189,1.189,0,0,1,.119.907c-.216.952.038.437-.272,1.212a1.137,1.137,0,0,1-1.015.569Z" transform="translate(-1.43 -6.212)"/>
        <path id="Path_75406" data-name="Path 75406" d="M45.281,66.639c-.046-.259-.089-.519-.128-.78-.083-.564-.15-1.135-.2-1.708a1.429,1.429,0,0,1,.642.35,1.266,1.266,0,0,1,.269,1.423,1.979,1.979,0,0,1-.586.716Z" transform="translate(0.184 -6.459)"/>
      </g>
    </g>
  </g>
</svg>
