<svg xmlns="http://www.w3.org/2000/svg" xmlns:xlink="http://www.w3.org/1999/xlink" width="32" height="32" viewBox="0 0 32 32">
  <defs>
    <clipPath id="clip-path">
      <circle id="ellipse" cx="16" cy="16" r="16" transform="translate(0.386 0.143)" fill="#009ee3" stroke="#e2e2eb" stroke-width="1"/>
    </clipPath>
  </defs>
  <g id="_04" data-name="04" transform="translate(-0.386 -0.143)">
    <g id="Mask_Group_20" data-name="Mask Group 20" transform="translate(0)" clip-path="url(#clip-path)">
      <path id="icons8_twitter_squared" d="M29.238,4.4H11.7a7.315,7.315,0,0,0-7.3,7.306v17.53a7.315,7.315,0,0,0,7.3,7.307H29.238a7.315,7.315,0,0,0,7.3-7.306V11.7A7.314,7.314,0,0,0,29.238,4.4Zm-.557,12.769c.007.174.012.348.012.525a11.5,11.5,0,0,1-17.718,9.72,8.166,8.166,0,0,0,5.99-1.68,4.055,4.055,0,0,1-3.78-2.818,4.035,4.035,0,0,0,.763.073,3.964,3.964,0,0,0,1.065-.144,4.057,4.057,0,0,1-3.244-3.981v-.051a4.022,4.022,0,0,0,1.833.509A4.071,4.071,0,0,1,12.349,13.9a11.482,11.482,0,0,0,8.337,4.243,4.048,4.048,0,0,1,6.894-3.7,8.1,8.1,0,0,0,2.571-.984,4.071,4.071,0,0,1-1.781,2.245,8.117,8.117,0,0,0,2.325-.643,8.222,8.222,0,0,1-2.014,2.1Z" transform="translate(-4.4 -4.4)" fill="#009ee3"/>
    </g>
  </g>
</svg>
