<svg xmlns="http://www.w3.org/2000/svg" xmlns:xlink="http://www.w3.org/1999/xlink" width="44" height="44" viewBox="0 0 44 44">
  <defs>
    <clipPath id="clip-path">
      <circle id="ellipse" cx="22" cy="22" r="22" fill="#fff" stroke="#e2e2eb" stroke-width="1"/>
    </clipPath>
  </defs>
  <g id="Mask_Group_20" data-name="Mask Group 20" clip-path="url(#clip-path)">
    <path id="icons8_twitter_squared" d="M38.4,4.4h-24a10.013,10.013,0,0,0-10,10v24a10.013,10.013,0,0,0,10,10h24a10.013,10.013,0,0,0,10-10v-24A10.011,10.011,0,0,0,38.4,4.4Zm-.763,17.48c.01.238.016.477.016.719A15.746,15.746,0,0,1,13.4,35.9a11.179,11.179,0,0,0,8.2-2.3,5.551,5.551,0,0,1-5.174-3.857,5.523,5.523,0,0,0,1.044.1,5.427,5.427,0,0,0,1.458-.2,5.554,5.554,0,0,1-4.441-5.45v-.07a5.506,5.506,0,0,0,2.509.7,5.573,5.573,0,0,1-1.715-7.415,15.718,15.718,0,0,0,11.412,5.808,5.541,5.541,0,0,1,9.437-5.064,11.088,11.088,0,0,0,3.52-1.346,5.573,5.573,0,0,1-2.438,3.073A11.112,11.112,0,0,0,40.395,19a11.255,11.255,0,0,1-2.757,2.879Z" transform="translate(-4.4 -4.4)" fill="#fff"/>
  </g>
</svg>
